<?xml version="1.0"?>
<svg width="70" height="70" xmlns="http://www.w3.org/2000/svg" xmlns:svg="http://www.w3.org/2000/svg" version="1.1">
 <defs id="defs2">
  <rect height="14.86" id="rect862" width="51.34" x="74.57" y="177.13"/>
 </defs>
 <metadata id="metadata5">image/svg+xml</metadata>
 <g class="layer">
  <title>Layer 1</title>
  <g id="layer1">
   <path d="m20.15,12.52c11.29,-9.6 17.62,-7.97 21.15,0c0.15,0.35 1.07,0.64 0.69,0.7c-26.58,4.13 -12.7,22.3 0,50.79c0.16,0.35 -0.33,0.82 -0.69,0.7c-10.38,-3.61 -20.57,-7 -21.15,0c-0.03,0.38 -0.54,-0.35 -0.69,-0.7c-18.24,-42.17 3.15,-45.28 0,-50.79c-0.2,-0.34 0.4,-0.45 0.69,-0.7z" fill="#00ccff" id="rect851" stroke-width="0.5"/>
   <path d="m55.63,32.01c-2.17,2.65 -10.38,-4.65 -10.17,10.5c0.23,16.61 -14.6,-14.75 -8.49,-17.83c20.09,-10.14 3.97,-11.46 6.09,-20.03c1.21,-4.9 19.14,19.38 12.57,27.36z" fill="#88aa00" id="path854" stroke-width="0.5"/>
  </g>
 </g>
</svg>